<svg version="1.1" xmlns="http://www.w3.org/2000/svg" xmlns:xlink="http://www.w3.org/1999/xlink" width="101" height="100" viewBox="684.83331,556,101,100"><defs><clipPath id="clip-1"><rect x="684.83331" y="556" width="101" height="100" id="clip-1" fill="none" fill-rule="nonzero"/></clipPath><clipPath id="clip-2"><rect x="685.33331" y="556" width="100" height="100" id="clip-2" fill="none" fill-rule="nonzero"/></clipPath></defs><g fill="none" fill-rule="none" stroke="none" stroke-width="1" stroke-linecap="butt" stroke-linejoin="miter" stroke-miterlimit="10" stroke-dasharray="" stroke-dashoffset="0" font-family="none" font-weight="none" font-size="none" text-anchor="none" style="mix-blend-mode: normal"><g><g clip-path="url(#clip-1)" id="Group 1"><g clip-path="url(#clip-2)" id="Group 1"><path d="M692.36275,563.02944c-7.02944,7.02946 -7.02944,18.34316 -7.02944,40.97056v4c0,22.6274 0,33.9411 7.02944,40.9706c7.02946,7.0294 18.34316,7.0294 40.97056,7.0294h4c22.6274,0 33.9411,0 40.9706,-7.0294c7.0294,-7.0295 7.0294,-18.3432 7.0294,-40.9706v-4c0,-22.6274 0,-33.9411 -7.0294,-40.97056c-7.0295,-7.02944 -18.3432,-7.02944 -40.9706,-7.02944h-4c-22.6274,0 -33.9411,0 -40.97056,7.02944zM702.20851,586.4169c0.5416,26 13.5415,41.6249 36.3332,41.6249h1.2919v-14.875c8.375,0.8333 14.7079,6.9584 17.2495,14.875h11.8337c-3.25,-11.8333 -11.7921,-18.375 -17.1254,-20.875c5.3333,-3.0833 12.8334,-10.5833 14.625,-20.7499h-10.7503c-2.3333,8.25 -9.2492,15.7499 -15.8325,16.4582v-16.4582h-10.7504v28.8332c-6.6666,-1.6666 -15.0831,-9.7499 -15.4581,-28.8332z" id="CompoundPath 1" fill="#808080" fill-rule="evenodd"/></g></g></g></g></svg>